<!DOCTYPE svg PUBLIC "-//W3C//DTD SVG 1.1//EN" "http://www.w3.org/Graphics/SVG/1.1/DTD/svg11.dtd">
<!-- Uploaded to: SVG Repo, www.svgrepo.com, Transformed by: SVG Repo Mixer Tools -->
<svg width="800px" height="800px" viewBox="0 0 48 48" xmlns="http://www.w3.org/2000/svg" fill="#000000" stroke="#000000" stroke-width="1.296">
<g id="SVGRepo_bgCarrier" stroke-width="0"/>
<g id="SVGRepo_tracerCarrier" stroke-linecap="round" stroke-linejoin="round"/>
<g id="SVGRepo_iconCarrier">
<defs>
<style>.a{fill:none;stroke:#6C6C6C;stroke-linecap:round;stroke-linejoin:round;}</style>
</defs>
<path class="a" d="M38.6475,41.4906V22.3671H42.64a.8582.8582,0,0,0,.5562-1.5118L25.5894,5.8682a2.4521,2.4521,0,0,0-3.1788,0L4.8037,20.8553A.8582.8582,0,0,0,5.36,22.3671H9.3525V41.4906a1.226,1.226,0,0,0,1.226,1.226h26.843A1.226,1.226,0,0,0,38.6475,41.4906Z"/>
<path class="a" d="M18.7315,24.8673v-3.47a5.2685,5.2685,0,0,1,10.537,0v3.47"/>
<rect class="a" x="16.8943" y="24.8673" width="14.2115" height="11.6754"/>
</g>
</svg>